<?xml version="1.0" encoding="utf-8"?>
<!-- Generator: Adobe Illustrator 16.0.0, SVG Export Plug-In . SVG Version: 6.00 Build 0)  -->
<!DOCTYPE svg PUBLIC "-//W3C//DTD SVG 1.1//EN" "http://www.w3.org/Graphics/SVG/1.1/DTD/svg11.dtd">
<svg version="1.1" xmlns="http://www.w3.org/2000/svg" xmlns:xlink="http://www.w3.org/1999/xlink" x="0px" y="0px"
	 width="595.28px" height="841.89px" viewBox="0 0 595.28 841.89" enable-background="new 0 0 595.28 841.89" xml:space="preserve">
<g id="Handy">
	<path fill="#FFFFFF" stroke="#000000" stroke-width="52" stroke-miterlimit="10" d="M505.465,763.408c0,6.627-5.373,12-12,12
		H92.113c-6.627,0-12-5.373-12-12V121.211c0-6.627,5.373-12,12-12h401.352c6.627,0,12,5.373,12,12V763.408z"/>
</g>
<g id="sakko">
	<path d="M525.184,758.721c0,9.216-5.373,16.688-12,16.688H68.169c-6.627,0-12-7.472-12-16.688V431.688
		c0-9.216,5.373-16.688,12-16.688h445.015c6.627,0,12,7.473,12,16.688V758.721z"/>
	<path fill="#FFFFFF" d="M239,345.333"/>
</g>
<g id="hemd">
	<polygon fill="#FFFFFF" points="106.083,415 292.789,528 479,415 	"/>
	<g>
		<g>
			<path fill-rule="evenodd" clip-rule="evenodd" fill="#FFFFFF" d="M106.269,233.518c124.306,0,248.611,0,372.917,0
				c0,46.227,0,92.455,0,138.682c-124.306,0-248.611,0-372.917,0C106.269,325.972,106.269,279.745,106.269,233.518z
				 M288.504,312.938c1.51,1.358,2.99,2.77,4.556,4.077c2.07,1.728,4.194,3.391,6.32,5.048c1.512,1.178,3.044,2.333,4.609,3.438
				c1.584,1.117,3.203,2.188,4.839,3.228c1.923,1.223,3.854,2.438,5.829,3.572c2.104,1.209,4.241,2.368,6.407,3.462
				c2.426,1.227,4.894,2.37,7.355,3.523c1.131,0.53,2.273,1.047,3.442,1.482c3.075,1.146,6.152,2.288,9.258,3.343
				c2.065,0.702,4.17,1.298,6.278,1.862c2.283,0.61,4.585,1.158,6.891,1.677c1.596,0.358,3.213,0.625,4.821,0.925
				c1.375,0.257,2.746,0.551,4.131,0.742c1.36,0.187,2.735,0.276,4.105,0.389c3.08,0.253,6.16,0.679,9.242,0.699
				c4.994,0.032,9.991-0.162,14.984-0.345c3.142-0.115,6.272-0.315,9.362-1.067c2.886-0.702,5.845-1.093,8.75-1.723
				c2.16-0.468,4.301-1.048,6.423-1.669c2.036-0.596,4.053-1.265,6.05-1.982c2.028-0.728,4.022-1.55,6.029-2.337
				c0.395-0.155,0.793-0.31,1.165-0.509c1.361-0.727,2.714-1.471,4.066-2.212c1.82-0.998,3.71-1.889,5.438-3.028
				c1.81-1.193,3.483-2.599,5.178-3.961c1.086-0.873,2.207-1.74,3.123-2.776c1.587-1.796,3.117-3.658,4.503-5.612
				c1.41-1.989,2.726-4.064,3.89-6.207c1.973-3.633,3.367-7.511,4.277-11.545c0.651-2.886,1.17-5.803,1.132-8.779
				c-0.029-2.281-0.048-4.566-0.203-6.84c-0.106-1.571-0.299-3.163-0.699-4.681c-0.716-2.714-1.442-5.449-2.491-8.043
				c-1.011-2.499-2.274-4.932-3.721-7.207c-1.377-2.167-2.905-4.279-4.931-5.95c-1.591-1.313-3.066-2.775-4.722-3.996
				c-2.355-1.738-5.104-2.782-7.85-3.688c-2.615-0.863-5.376-1.113-8.152-0.986c-2.273,0.104-4.439,0.45-6.558,1.444
				c-2.182,1.024-4.045,2.391-5.679,4.094c-1.711,1.782-2.97,3.902-4.007,6.125c-0.438,0.938-0.591,2.02-0.783,3.054
				c-0.114,0.611,0.261,1.175,0.853,1.206c0.621,0.033,1.593-0.038,1.831-0.422c1.104-1.787,2.647-3.166,4.397-4.078
				c1.733-0.904,3.758-1.412,5.711-1.672c1.289-0.172,2.688,0.357,4.019,0.651c2.766,0.611,4.888,2.257,6.725,4.328
				c1.423,1.605,2.544,3.418,3.152,5.461c0.854,2.864,1.339,5.772,1.034,8.82c-0.283,2.84-0.778,5.549-2.102,8.123
				c-1.261,2.451-3.151,4.271-5.455,5.581c-1.99,1.132-4.188,1.49-6.596,1.239c-3.181-0.331-6.219-1.005-9.227-2.052
				c-2.699-0.939-5.225-2.215-7.737-3.534c-1.52-0.797-3.052-1.588-4.489-2.52c-2.153-1.396-4.236-2.901-6.334-4.38
				c-1.365-0.962-2.712-1.952-4.054-2.946c-2.379-1.763-4.758-3.526-7.12-5.311c-2.102-1.587-4.162-3.227-6.274-4.799
				c-2.571-1.915-5.165-3.8-7.774-5.664c-1.554-1.111-3.137-2.185-4.74-3.223c-1.757-1.137-3.518-2.278-5.341-3.303
				c-2.298-1.292-4.624-2.545-7.006-3.673c-2.449-1.16-4.952-2.222-7.484-3.187c-1.724-0.656-3.517-1.176-5.319-1.57
				c-2.934-0.642-5.893-1.178-8.855-1.664c-1.206-0.198-2.451-0.187-3.679-0.202c-3.072-0.039-6.113,0.289-9.157,0.705
				c-2.895,0.396-5.812,0.597-8.612,1.521c-1.843,0.608-3.735,1.075-5.549,1.758c-1.932,0.728-3.843,1.545-5.68,2.485
				c-2.345,1.2-4.574,2.607-6.511,4.429c-1.797,1.69-3.606,3.367-5.158,4.814c-1.01-0.903-2.173-1.981-3.377-3.012
				c-1.636-1.402-3.196-2.929-4.983-4.107c-2.066-1.362-4.321-2.45-6.538-3.568c-1.192-0.601-2.457-1.085-3.728-1.498
				c-1.901-0.617-3.811-1.269-5.766-1.647c-3.459-0.669-6.951-1.181-10.44-1.682c-1.272-0.182-2.575-0.184-3.865-0.198
				c-2.273-0.025-4.518,0.146-6.783,0.492c-3.127,0.479-6.28,0.736-9.298,1.781c-0.969,0.336-1.999,0.505-2.954,0.872
				c-2.105,0.809-4.189,1.673-6.263,2.558c-1.235,0.527-2.419,1.169-3.652,1.702c-2.236,0.967-4.358,2.117-6.389,3.473
				c-2.221,1.483-4.569,2.775-6.792,4.255c-2.215,1.474-4.357,3.059-6.506,4.629c-2.442,1.786-4.854,3.613-7.283,5.417
				c-1.061,0.788-2.146,1.544-3.198,2.343c-1.976,1.5-3.925,3.036-5.906,4.529c-1.03,0.776-2.108,1.489-3.156,2.241
				c-1.843,1.323-3.641,2.714-5.531,3.966c-1.63,1.08-3.342,2.042-5.052,2.993c-2.396,1.332-4.783,2.69-7.253,3.872
				c-1.526,0.73-3.163,1.312-4.813,1.678c-2.573,0.572-5.187,1.019-7.806,1.305c-2.222,0.244-4.234-0.517-6.179-1.677
				c-1.979-1.181-3.462-2.774-4.636-4.665c-1.57-2.527-2.225-5.386-2.405-8.316c-0.223-3.625,0.081-7.189,1.621-10.579
				c1.127-2.481,2.701-4.571,4.854-6.225c2.543-1.953,5.49-2.744,8.636-2.877c0.497-0.021,1.002,0.246,1.51,0.349
				c1.718,0.347,3.453,0.699,4.806,1.902c1.198,1.065,2.354,2.19,3.412,3.392c0.592,0.673,1.255,0.739,1.985,0.636
				c0.684-0.097,0.893-0.702,0.935-1.289c0.034-0.467,0.013-0.984-0.156-1.411c-1.404-3.534-3.342-6.711-6.228-9.261
				c-1.546-1.365-3.337-2.3-5.214-3.07c-2.527-1.038-5.209-1.039-7.874-0.917c-2.379,0.109-4.675,0.611-6.943,1.43
				c-2.619,0.945-5.085,2.111-7.31,3.768c-1.275,0.95-2.618,1.864-3.695,3.014c-1.75,1.868-3.429,3.83-4.908,5.916
				c-1.321,1.862-2.445,3.89-3.44,5.949c-0.823,1.702-1.326,3.558-1.978,5.342c-1.359,3.718-1.924,7.604-2.108,11.515
				c-0.129,2.721,0.155,5.466,0.332,8.196c0.212,3.29,1.035,6.479,2.105,9.566c1.376,3.969,3.116,7.792,5.499,11.295
				c1.63,2.396,3.232,4.808,5.307,6.851c1.413,1.391,2.774,2.866,4.346,4.055c2.456,1.859,5.014,3.599,7.635,5.218
				c2.084,1.287,4.282,2.413,6.51,3.436c2.599,1.194,5.26,2.264,7.939,3.267c2.041,0.764,4.138,1.391,6.237,1.984
				c2.07,0.586,4.164,1.101,6.267,1.559c1.983,0.432,3.993,0.744,5.989,1.12c0.927,0.174,1.841,0.429,2.774,0.553
				c1.332,0.176,2.673,0.282,4.013,0.39c3.142,0.255,6.282,0.63,9.429,0.703c3.795,0.087,7.597-0.058,11.395-0.162
				c2.363-0.064,4.725-0.219,7.084-0.373c0.816-0.053,1.626-0.214,2.436-0.347c1.082-0.178,2.156-0.4,3.24-0.561
				c0.725-0.108,1.473-0.079,2.188-0.222c2.29-0.458,4.575-0.944,6.851-1.465c2.304-0.527,4.607-1.064,6.888-1.682
				c2.047-0.555,4.07-1.203,6.09-1.851c1.647-0.528,3.302-1.053,4.907-1.695c2.771-1.109,5.512-2.291,8.251-3.477
				c2.01-0.87,4.022-1.743,5.985-2.712c1.548-0.765,3.03-1.667,4.53-2.528c1.818-1.044,3.66-2.055,5.428-3.178
				c2.779-1.765,5.572-3.52,8.236-5.448c2.959-2.142,5.8-4.451,8.655-6.733c1.668-1.335,3.263-2.761,4.893-4.145
				C287.763,313.546,288.108,313.266,288.504,312.938z"/>
			<path fill-rule="evenodd" clip-rule="evenodd" d="M288.504,312.938c-0.396,0.328-0.741,0.608-1.08,0.896
				c-1.63,1.383-3.225,2.81-4.893,4.145c-2.855,2.283-5.696,4.591-8.655,6.733c-2.664,1.929-5.458,3.684-8.236,5.448
				c-1.769,1.124-3.61,2.134-5.428,3.178c-1.5,0.861-2.981,1.764-4.53,2.528c-1.963,0.969-3.975,1.842-5.985,2.712
				c-2.739,1.186-5.481,2.367-8.251,3.477c-1.604,0.643-3.259,1.167-4.907,1.695c-2.02,0.648-4.043,1.296-6.09,1.851
				c-2.28,0.618-4.584,1.154-6.888,1.682c-2.276,0.521-4.561,1.007-6.851,1.465c-0.715,0.143-1.464,0.114-2.188,0.222
				c-1.084,0.161-2.158,0.383-3.24,0.561c-0.81,0.133-1.62,0.294-2.436,0.347c-2.359,0.154-4.721,0.308-7.084,0.373
				c-3.798,0.104-7.6,0.249-11.395,0.162c-3.146-0.072-6.287-0.448-9.429-0.703c-1.339-0.108-2.681-0.214-4.013-0.39
				c-0.933-0.124-1.848-0.379-2.774-0.553c-1.996-0.376-4.005-0.688-5.989-1.12c-2.103-0.458-4.196-0.973-6.267-1.559
				c-2.099-0.594-4.196-1.221-6.237-1.984c-2.679-1.003-5.34-2.072-7.939-3.267c-2.228-1.023-4.426-2.149-6.51-3.436
				c-2.621-1.619-5.18-3.359-7.635-5.218c-1.572-1.189-2.933-2.665-4.346-4.055c-2.075-2.043-3.677-4.455-5.307-6.851
				c-2.383-3.503-4.123-7.326-5.499-11.295c-1.07-3.087-1.894-6.276-2.105-9.566c-0.176-2.729-0.46-5.475-0.332-8.196
				c0.185-3.911,0.75-7.797,2.108-11.515c0.652-1.785,1.155-3.641,1.978-5.342c0.995-2.059,2.119-4.087,3.44-5.949
				c1.479-2.085,3.158-4.047,4.908-5.916c1.077-1.15,2.42-2.064,3.695-3.014c2.225-1.657,4.691-2.823,7.31-3.768
				c2.269-0.819,4.564-1.321,6.943-1.43c2.665-0.123,5.347-0.121,7.874,0.917c1.877,0.771,3.668,1.705,5.214,3.07
				c2.886,2.549,4.824,5.727,6.228,9.261c0.169,0.426,0.19,0.944,0.156,1.411c-0.042,0.587-0.251,1.192-0.935,1.289
				c-0.73,0.103-1.393,0.037-1.985-0.636c-1.058-1.202-2.214-2.327-3.412-3.392c-1.353-1.203-3.088-1.555-4.806-1.902
				c-0.508-0.103-1.013-0.37-1.51-0.349c-3.146,0.133-6.092,0.924-8.636,2.877c-2.153,1.654-3.727,3.744-4.854,6.225
				c-1.54,3.39-1.844,6.954-1.621,10.579c0.18,2.93,0.835,5.789,2.405,8.316c1.174,1.89,2.656,3.484,4.636,4.665
				c1.944,1.16,3.957,1.92,6.179,1.677c2.619-0.287,5.233-0.733,7.806-1.305c1.65-0.367,3.287-0.948,4.813-1.678
				c2.47-1.182,4.857-2.54,7.253-3.872c1.71-0.951,3.422-1.913,5.052-2.993c1.89-1.252,3.688-2.643,5.531-3.966
				c1.048-0.752,2.126-1.465,3.156-2.241c1.981-1.493,3.93-3.028,5.906-4.529c1.052-0.799,2.137-1.556,3.198-2.343
				c2.429-1.803,4.841-3.631,7.283-5.417c2.149-1.571,4.292-3.155,6.506-4.629c2.224-1.479,4.572-2.772,6.792-4.255
				c2.031-1.355,4.153-2.506,6.389-3.473c1.232-0.533,2.417-1.175,3.652-1.702c2.074-0.885,4.158-1.749,6.263-2.558
				c0.955-0.367,1.985-0.536,2.954-0.872c3.018-1.045,6.17-1.302,9.298-1.781c2.265-0.346,4.51-0.517,6.783-0.492
				c1.29,0.015,2.593,0.016,3.865,0.198c3.489,0.5,6.981,1.012,10.44,1.682c1.956,0.378,3.865,1.03,5.766,1.647
				c1.271,0.413,2.536,0.897,3.728,1.498c2.217,1.118,4.472,2.206,6.538,3.568c1.787,1.179,3.347,2.706,4.983,4.107
				c1.204,1.031,2.367,2.109,3.377,3.012c1.552-1.447,3.361-3.125,5.158-4.814c1.937-1.821,4.166-3.229,6.511-4.429
				c1.837-0.94,3.748-1.758,5.68-2.485c1.813-0.683,3.706-1.149,5.549-1.758c2.801-0.925,5.718-1.125,8.612-1.521
				c3.044-0.417,6.085-0.744,9.157-0.705c1.228,0.016,2.473,0.004,3.679,0.202c2.963,0.486,5.922,1.022,8.855,1.664
				c1.803,0.395,3.596,0.914,5.319,1.57c2.532,0.965,5.035,2.027,7.484,3.187c2.382,1.128,4.708,2.381,7.006,3.673
				c1.823,1.025,3.584,2.166,5.341,3.303c1.604,1.039,3.187,2.112,4.74,3.223c2.609,1.864,5.203,3.749,7.774,5.664
				c2.112,1.572,4.173,3.212,6.274,4.799c2.362,1.785,4.741,3.548,7.12,5.311c1.342,0.994,2.688,1.984,4.054,2.946
				c2.098,1.479,4.181,2.985,6.334,4.38c1.438,0.931,2.97,1.722,4.489,2.52c2.513,1.319,5.038,2.594,7.737,3.534
				c3.008,1.047,6.046,1.721,9.227,2.052c2.408,0.251,4.605-0.107,6.596-1.239c2.304-1.31,4.194-3.129,5.455-5.581
				c1.323-2.573,1.818-5.283,2.102-8.123c0.305-3.047-0.181-5.956-1.034-8.82c-0.608-2.042-1.729-3.856-3.152-5.461
				c-1.837-2.071-3.959-3.717-6.725-4.328c-1.331-0.294-2.729-0.823-4.019-0.651c-1.953,0.26-3.978,0.769-5.711,1.672
				c-1.75,0.913-3.293,2.292-4.397,4.078c-0.238,0.384-1.21,0.455-1.831,0.422c-0.592-0.031-0.967-0.595-0.853-1.206
				c0.192-1.034,0.346-2.116,0.783-3.054c1.037-2.223,2.296-4.342,4.007-6.125c1.634-1.703,3.497-3.069,5.679-4.094
				c2.118-0.994,4.284-1.34,6.558-1.444c2.776-0.127,5.537,0.123,8.152,0.986c2.745,0.907,5.494,1.95,7.85,3.688
				c1.655,1.221,3.131,2.684,4.722,3.996c2.025,1.671,3.554,3.784,4.931,5.95c1.446,2.275,2.71,4.708,3.721,7.207
				c1.049,2.594,1.775,5.329,2.491,8.043c0.4,1.518,0.593,3.11,0.699,4.681c0.155,2.274,0.174,4.559,0.203,6.84
				c0.038,2.977-0.48,5.894-1.132,8.779c-0.91,4.034-2.305,7.912-4.277,11.545c-1.164,2.143-2.479,4.218-3.89,6.207
				c-1.386,1.954-2.916,3.816-4.503,5.612c-0.916,1.037-2.037,1.903-3.123,2.776c-1.694,1.362-3.368,2.768-5.178,3.961
				c-1.728,1.139-3.617,2.03-5.438,3.028c-1.353,0.742-2.705,1.485-4.066,2.212c-0.372,0.199-0.771,0.354-1.165,0.509
				c-2.007,0.787-4.001,1.61-6.029,2.337c-1.997,0.717-4.014,1.386-6.05,1.982c-2.122,0.621-4.263,1.201-6.423,1.669
				c-2.905,0.629-5.864,1.021-8.75,1.723c-3.09,0.752-6.221,0.952-9.362,1.067c-4.993,0.183-9.99,0.377-14.984,0.345
				c-3.082-0.02-6.162-0.446-9.242-0.699c-1.37-0.113-2.745-0.202-4.105-0.389c-1.385-0.191-2.756-0.485-4.131-0.742
				c-1.608-0.3-3.226-0.566-4.821-0.925c-2.306-0.519-4.607-1.066-6.891-1.677c-2.108-0.564-4.213-1.16-6.278-1.862
				c-3.105-1.056-6.183-2.198-9.258-3.343c-1.169-0.436-2.312-0.953-3.442-1.482c-2.462-1.153-4.93-2.296-7.355-3.523
				c-2.166-1.095-4.303-2.253-6.407-3.462c-1.976-1.135-3.906-2.349-5.829-3.572c-1.636-1.04-3.255-2.11-4.839-3.228
				c-1.565-1.104-3.098-2.26-4.609-3.438c-2.126-1.657-4.25-3.321-6.32-5.048C291.494,315.708,290.015,314.296,288.504,312.938z"/>
		</g>
	</g>
	<line fill="none" stroke="#FFFFFF" stroke-width="2" stroke-miterlimit="10" x1="292.789" y1="524" x2="292.789" y2="756.5"/>
	<line fill="#676767" stroke="#FFFFFF" stroke-width="2" stroke-miterlimit="10" x1="75.5" y1="756.5" x2="505.465" y2="756.5"/>
	<circle fill="#676767" cx="271" cy="558" r="12"/>
	<circle fill="#676767" cx="271" cy="598.204" r="12"/>
	<circle fill="#676767" cx="271" cy="637" r="12"/>
	<circle fill="#676767" cx="271" cy="676" r="12"/>
</g>
<g id="Ebene_4">
	<circle fill="#E52420" cx="292.542" cy="417.5" r="20.25"/>
	<polygon fill="#E52420" points="292.542,417.5 227.5,387.594 227.5,447.406 	"/>
	<polygon fill="#E52420" points="292.789,417.5 357.83,387.594 357.83,447.406 	"/>
</g>
</svg>
